<svg id="svg" version="1.1" xmlns="http://www.w3.org/2000/svg" xmlns:xlink="http://www.w3.org/1999/xlink" width="400" height="431.4814814814815" viewBox="0, 0, 400,431.4814814814815"><g id="svgg"><path id="path0" d="M261.400 11.600 C 261.264 11.820,261.523 12.000,261.976 12.000 C 262.759 12.000,262.975 12.380,262.830 13.500 C 262.788 13.820,263.286 14.000,264.210 14.000 C 266.161 14.000,266.152 12.282,264.200 12.069 C 263.540 11.997,262.829 11.772,262.620 11.569 C 262.127 11.090,261.708 11.101,261.400 11.600 M146.935 12.457 C 146.020 12.664,145.053 13.096,144.786 13.417 C 144.363 13.927,148.783 14.000,180.151 14.000 L 216.000 14.000 216.000 13.009 L 216.000 12.018 182.300 12.049 C 162.850 12.068,147.896 12.240,146.935 12.457 M139.200 13.400 C 138.778 13.909,138.869 14.000,139.800 14.000 C 140.731 14.000,140.822 13.909,140.400 13.400 C 140.126 13.070,139.856 12.800,139.800 12.800 C 139.744 12.800,139.474 13.070,139.200 13.400 M295.889 41.845 C 294.203 43.531,294.807 43.600,311.200 43.600 C 319.780 43.600,326.797 43.465,326.794 43.300 C 326.764 41.839,326.416 41.803,311.103 41.678 C 302.894 41.611,296.047 41.686,295.889 41.845 M79.003 44.548 C 79.101 45.871,89.331 45.881,89.520 44.557 C 89.637 43.737,89.500 43.715,84.291 43.705 C 79.076 43.696,78.942 43.717,79.003 44.548 M91.000 43.954 C 90.227 44.192,89.689 45.171,90.300 45.228 C 90.465 45.244,100.905 45.334,113.500 45.430 L 136.400 45.603 136.400 44.611 L 136.400 43.619 114.100 43.663 C 101.835 43.688,91.440 43.819,91.000 43.954 M327.000 43.933 C 326.482 44.451,326.859 45.600,327.548 45.600 C 328.665 45.600,328.791 47.138,328.796 60.900 C 328.799 71.139,328.893 73.200,329.357 73.200 C 330.300 73.200,330.432 71.519,330.381 60.132 C 330.332 49.311,330.346 49.113,331.187 48.524 C 331.866 48.049,332.017 47.590,331.921 46.303 C 331.772 44.313,330.807 43.512,329.723 44.479 C 329.061 45.071,327.613 44.521,328.224 43.909 C 328.321 43.813,328.130 43.733,327.800 43.733 C 327.470 43.733,327.110 43.823,327.000 43.933 M74.600 45.493 C 73.337 45.808,73.314 45.979,73.263 55.506 C 73.234 61.047,73.058 64.702,72.808 64.952 C 72.583 65.177,72.400 66.303,72.400 67.456 C 72.400 68.609,72.220 69.664,72.000 69.800 C 71.408 70.166,71.495 74.291,72.100 74.535 C 72.375 74.646,66.480 74.754,59.000 74.774 C 44.422 74.814,43.600 74.882,43.600 76.051 C 43.600 76.784,44.120 76.806,59.300 76.705 L 75.000 76.600 75.200 60.900 C 75.310 52.265,75.400 45.221,75.400 45.246 C 75.400 45.272,75.040 45.383,74.600 45.493 M356.118 73.881 C 356.014 74.145,356.046 74.550,356.188 74.781 C 356.548 75.363,357.890 75.307,358.135 74.700 C 358.246 74.425,358.351 74.889,358.368 75.732 C 358.400 77.246,358.415 77.260,359.700 76.986 C 361.846 76.527,362.631 75.213,361.667 73.694 C 361.247 73.033,356.386 73.197,356.118 73.881 M360.000 87.837 C 360.000 89.068,360.166 89.600,360.551 89.600 C 362.154 89.600,362.375 86.696,360.804 86.285 C 360.088 86.098,360.000 86.269,360.000 87.837 M384.514 133.081 C 384.412 133.345,384.437 133.737,384.569 133.951 C 384.724 134.201,380.356 134.264,372.305 134.128 L 359.801 133.917 360.601 134.827 C 361.040 135.328,361.147 135.589,360.838 135.407 C 360.459 135.184,360.369 135.227,360.562 135.538 C 360.990 136.232,387.588 136.194,387.631 135.500 C 387.647 135.225,387.724 134.666,387.802 134.257 C 388.110 132.622,385.104 131.547,384.514 133.081 M388.564 133.350 C 388.085 134.599,388.570 135.400,389.805 135.400 C 390.866 135.400,391.000 135.265,391.000 134.200 C 391.000 132.836,389.026 132.147,388.564 133.350 M369.600 134.800 C 369.050 134.976,368.150 135.120,367.600 135.120 L 366.600 135.120 367.600 134.800 C 368.150 134.624,369.050 134.480,369.600 134.480 L 370.600 134.480 369.600 134.800 M390.700 137.757 C 390.039 138.259,390.000 141.741,390.000 200.944 L 390.000 263.600 391.557 263.600 C 392.887 263.600,393.150 263.453,393.366 262.592 C 393.663 261.408,393.022 260.000,392.186 260.000 C 391.486 260.000,391.309 251.827,392.000 251.400 C 392.543 251.065,392.547 221.107,392.004 220.564 C 391.146 219.706,391.473 147.164,392.337 146.559 C 392.988 146.103,393.091 145.498,393.091 142.132 C 393.091 137.483,392.496 136.394,390.700 137.757 M12.642 138.287 C 12.033 138.443,11.994 138.550,12.442 138.834 C 12.841 139.087,12.858 139.189,12.500 139.194 C 12.225 139.197,12.000 139.443,12.000 139.740 C 12.000 140.536,14.029 140.336,14.557 139.489 C 14.964 138.835,14.343 137.903,13.600 138.053 C 13.490 138.075,13.059 138.180,12.642 138.287 M177.400 172.999 C 177.180 173.073,176.331 173.246,175.513 173.383 C 172.602 173.869,172.799 171.662,172.806 203.729 C 172.810 221.197,172.962 232.837,173.191 233.200 C 173.828 234.209,197.205 234.523,199.400 233.552 C 200.280 233.163,201.483 232.744,202.074 232.621 L 203.148 232.398 203.185 203.343 C 203.219 176.643,203.168 174.227,202.549 173.544 C 201.934 172.864,179.247 172.372,177.400 172.999 M273.600 233.861 C 272.830 233.935,271.210 234.206,270.000 234.463 C 266.032 235.309,266.400 233.720,266.400 250.005 L 266.400 264.382 265.500 264.963 C 264.736 265.456,260.455 265.549,237.257 265.575 C 222.218 265.592,209.754 265.705,209.559 265.825 C 209.090 266.115,142.180 266.044,141.421 265.753 C 140.327 265.333,140.224 263.842,140.333 250.000 C 140.394 242.229,140.284 235.969,140.080 235.672 C 139.801 235.265,138.770 235.200,135.559 235.387 C 133.272 235.520,115.650 235.786,96.400 235.978 C 51.861 236.421,50.292 236.460,49.462 237.149 C 48.596 237.868,48.436 264.928,49.295 265.459 C 50.422 266.155,72.734 266.069,74.224 265.362 C 75.847 264.592,78.101 264.806,79.242 265.838 C 79.952 266.480,79.990 267.859,80.093 296.435 C 80.212 329.744,79.986 327.433,83.117 327.337 C 98.095 326.875,140.315 326.849,140.934 327.302 C 141.614 327.800,141.659 328.747,141.627 342.085 L 141.593 356.336 142.650 357.168 C 143.949 358.190,175.985 358.495,177.726 357.502 C 178.353 357.145,181.710 356.977,189.600 356.909 C 195.650 356.856,201.185 356.713,201.900 356.589 L 203.200 356.364 203.189 342.284 C 203.180 329.734,203.249 328.153,203.829 327.729 C 204.301 327.384,208.353 327.243,218.540 327.217 C 226.273 327.197,234.220 326.996,236.200 326.771 C 238.180 326.546,245.200 326.415,251.800 326.481 L 263.800 326.600 264.732 325.505 C 265.628 324.451,265.661 324.174,265.596 318.105 C 265.560 314.637,265.546 308.430,265.565 304.310 L 265.600 296.821 266.780 296.210 C 267.753 295.707,269.866 295.600,278.803 295.600 C 289.619 295.600,294.888 295.165,295.947 294.185 C 296.391 293.773,296.481 291.035,296.430 279.502 C 296.379 268.095,296.471 265.239,296.901 264.882 C 297.266 264.579,302.103 264.400,312.085 264.319 C 320.142 264.254,326.884 264.050,327.067 263.867 C 327.250 263.684,327.459 256.915,327.532 248.826 L 327.663 234.117 325.776 233.859 C 323.906 233.602,276.293 233.605,273.600 233.861 M11.091 258.966 C 9.610 260.447,10.388 265.194,12.114 265.206 C 12.725 265.210,12.841 265.313,12.486 265.538 C 11.783 265.984,12.316 267.200,13.215 267.200 C 13.667 267.200,13.993 267.542,14.072 268.100 L 14.200 269.000 28.900 269.091 C 43.308 269.180,43.600 269.166,43.600 268.391 C 43.600 267.620,43.284 267.600,30.900 267.597 C 15.155 267.592,14.000 267.484,14.000 266.006 C 14.000 265.381,13.623 264.603,13.107 264.162 C 12.380 263.542,12.315 263.530,12.756 264.100 C 13.114 264.562,13.145 264.800,12.849 264.800 C 12.361 264.800,12.304 264.519,12.358 262.400 C 12.429 259.640,11.887 258.170,11.091 258.966 M389.800 264.800 C 389.660 265.240,389.275 265.600,388.944 265.600 C 387.865 265.600,388.534 266.992,389.677 267.124 C 391.029 267.281,391.854 266.022,391.200 264.800 C 390.965 264.360,390.610 264.000,390.413 264.000 C 390.215 264.000,389.940 264.360,389.800 264.800 M328.714 341.900 C 328.618 354.651,328.690 357.078,329.176 357.500 C 330.026 358.236,330.586 358.108,329.949 357.323 C 329.615 356.911,329.588 356.760,329.882 356.936 C 330.254 357.159,330.370 353.969,330.390 342.938 C 330.404 335.080,330.464 328.603,330.522 328.544 C 330.581 328.486,336.555 328.409,343.798 328.374 C 357.496 328.308,358.000 328.272,358.000 327.357 C 358.000 326.891,355.615 326.800,343.414 326.800 L 328.828 326.800 328.714 341.900 M73.200 344.797 C 73.200 358.376,73.242 359.219,73.941 359.656 C 74.661 360.106,74.661 360.139,73.932 360.868 C 72.340 362.460,74.447 363.914,77.710 363.476 C 79.614 363.221,80.372 362.434,80.098 361.000 C 79.910 360.017,78.702 359.734,75.600 359.946 C 75.270 359.969,75.405 359.783,75.900 359.533 C 77.016 358.969,77.079 358.000,76.000 358.000 C 75.215 358.000,75.200 357.733,75.200 344.200 L 75.200 330.400 74.200 330.400 L 73.200 330.400 73.200 344.797 M267.600 359.000 L 267.600 360.000 289.950 360.000 C 313.444 360.000,314.588 359.943,315.228 358.747 C 315.617 358.021,314.938 358.000,291.614 358.000 L 267.600 358.000 267.600 359.000 M325.200 358.613 C 325.200 359.330,326.656 359.963,327.685 359.694 C 329.196 359.299,328.517 358.000,326.800 358.000 C 325.629 358.000,325.200 358.165,325.200 358.613 M81.481 360.666 C 81.672 361.165,81.594 361.246,81.168 360.989 C 80.683 360.697,80.680 360.746,81.149 361.323 C 81.859 362.198,84.227 362.229,84.557 361.367 C 85.011 360.185,84.802 360.000,83.013 360.000 C 81.510 360.000,81.266 360.106,81.481 360.666 M87.360 360.940 L 87.360 361.879 95.917 361.966 C 103.761 362.045,104.518 361.992,105.001 361.331 C 105.913 360.083,105.365 360.000,96.256 360.000 L 87.360 360.000 87.360 360.940 M109.700 360.265 C 109.425 360.376,109.200 360.800,109.200 361.208 C 109.200 361.936,112.131 362.061,113.234 361.379 C 114.759 360.436,111.680 359.466,109.700 360.265 M117.120 360.480 C 117.493 360.853,117.707 360.853,118.080 360.480 C 118.453 360.107,118.347 360.000,117.600 360.000 C 116.853 360.000,116.747 360.107,117.120 360.480 M132.800 361.151 C 132.800 363.676,135.275 363.774,135.525 361.260 C 135.645 360.059,135.584 360.000,134.225 360.000 C 132.922 360.000,132.800 360.098,132.800 361.151 M103.400 361.200 C 103.247 361.447,100.524 361.567,96.276 361.514 L 89.400 361.429 96.400 361.200 C 100.250 361.074,103.456 360.933,103.524 360.886 C 103.592 360.839,103.536 360.980,103.400 361.200 M133.269 385.724 C 131.423 387.694,132.779 390.236,135.190 389.326 C 135.864 389.072,136.400 389.033,136.400 389.238 C 136.400 389.441,136.760 389.382,137.200 389.107 C 138.167 388.503,138.252 387.600,137.342 387.600 C 136.981 387.600,136.126 386.954,135.442 386.165 L 134.200 384.731 133.269 385.724 M137.903 390.073 C 138.004 390.457,138.202 390.740,138.343 390.701 C 138.484 390.662,138.967 390.834,139.415 391.084 C 140.127 391.480,140.240 391.420,140.307 390.612 C 140.371 389.840,140.161 389.660,139.052 389.530 C 137.943 389.401,137.751 389.491,137.903 390.073 M189.200 390.424 C 189.200 390.877,189.380 391.136,189.600 391.000 C 189.820 390.864,190.000 390.943,190.000 391.176 C 190.000 391.471,199.448 391.600,221.000 391.600 C 238.050 391.600,252.000 391.459,252.000 391.287 C 252.000 391.115,252.450 390.937,253.000 390.892 C 253.550 390.846,254.000 390.987,254.000 391.204 C 254.000 391.422,255.080 391.600,256.400 391.600 C 257.733 391.600,258.800 391.422,258.800 391.200 C 258.800 390.980,258.991 390.800,259.224 390.800 C 259.457 390.800,259.540 390.973,259.410 391.184 C 259.269 391.412,259.667 391.396,260.386 391.145 C 261.054 390.912,261.600 390.469,261.600 390.161 C 261.600 389.462,259.954 389.420,259.221 390.100 C 258.790 390.500,258.739 390.500,258.965 390.100 C 259.180 389.719,258.526 389.600,256.224 389.600 C 254.139 389.600,253.200 389.749,253.200 390.080 C 253.200 390.453,253.093 390.453,252.720 390.080 C 252.355 389.715,244.702 389.600,220.720 389.600 L 189.200 389.600 189.200 390.424 M262.400 390.157 C 262.400 391.354,264.588 391.544,265.200 390.400 C 265.595 389.661,265.504 389.600,264.014 389.600 C 262.901 389.600,262.400 389.773,262.400 390.157 M135.648 390.942 C 135.300 391.362,135.322 391.603,135.742 391.952 C 136.162 392.300,136.403 392.278,136.752 391.858 C 137.100 391.438,137.078 391.197,136.658 390.848 C 136.238 390.500,135.997 390.522,135.648 390.942 M145.867 391.467 C 144.996 392.338,146.780 393.453,148.000 392.800 C 149.297 392.106,148.995 391.200,147.467 391.200 C 146.733 391.200,146.013 391.320,145.867 391.467 " stroke="none" fill="#f1f1f1" fill-rule="evenodd"></path><path id="path1" d="M156.000 50.014 C 145.899 50.334,143.569 51.075,143.651 53.945 C 143.673 54.745,143.485 55.924,143.231 56.565 C 142.978 57.206,142.609 59.859,142.411 62.461 C 142.214 65.063,141.935 67.381,141.793 67.612 C 141.503 68.081,142.312 73.471,142.811 74.388 C 142.999 74.734,142.816 75.801,142.365 76.988 C 141.945 78.094,141.600 79.284,141.600 79.630 C 141.600 81.517,139.891 82.123,134.912 82.000 C 132.321 81.936,129.570 81.872,128.800 81.858 C 128.030 81.844,117.927 81.870,106.349 81.916 L 85.299 82.000 83.600 83.600 C 82.666 84.480,81.761 85.200,81.589 85.200 C 80.842 85.200,80.662 90.968,80.632 115.879 C 80.609 134.583,80.471 142.488,80.159 142.800 C 78.685 144.276,64.958 145.044,58.613 144.005 C 55.173 143.441,52.199 144.393,51.519 146.275 C 51.189 147.185,50.843 147.541,50.418 147.406 C 49.562 147.134,49.385 152.008,50.051 157.488 C 50.455 160.809,50.449 162.187,50.021 164.822 C 49.295 169.289,49.807 170.965,51.931 171.079 C 52.739 171.123,55.110 171.329,57.200 171.539 C 59.290 171.748,64.780 171.930,69.400 171.944 C 85.724 171.993,126.245 171.619,129.600 171.389 C 136.525 170.915,138.510 170.616,138.823 170.000 C 139.859 167.961,140.199 153.734,139.391 146.200 C 138.838 141.034,140.849 139.926,150.200 140.250 C 154.160 140.387,163.790 140.299,171.600 140.055 C 188.703 139.521,251.342 139.399,259.900 139.883 C 268.207 140.352,267.377 138.637,267.390 155.369 C 267.395 162.938,267.551 169.281,267.735 169.465 C 267.919 169.649,280.867 169.781,296.507 169.758 L 324.944 169.716 326.815 167.583 C 328.632 165.511,328.886 164.606,327.986 163.400 C 327.554 162.820,327.879 148.045,328.359 146.463 C 329.193 143.716,328.378 142.244,325.160 140.685 L 322.920 139.600 310.660 139.600 C 294.934 139.600,296.800 141.623,296.800 124.574 C 296.800 111.288,296.681 109.935,295.440 109.106 C 295.198 108.944,288.931 108.809,281.514 108.806 C 266.323 108.799,267.091 108.966,267.233 105.696 C 267.269 104.873,267.107 103.399,266.873 102.420 C 266.608 101.305,266.537 98.084,266.683 93.811 C 266.896 87.621,266.845 86.815,266.142 85.191 C 265.714 84.206,265.115 82.623,264.809 81.672 C 264.233 79.882,262.872 78.800,261.195 78.800 C 260.730 78.800,259.447 78.504,258.342 78.143 C 256.692 77.603,255.645 77.547,252.467 77.828 C 250.340 78.016,245.630 78.177,242.000 78.185 C 238.370 78.193,221.720 78.355,205.000 78.545 C 174.878 78.887,174.592 78.883,173.763 78.088 C 172.472 76.851,171.954 71.692,172.047 61.000 C 172.149 49.280,172.401 50.000,168.206 50.000 C 166.369 50.000,164.626 49.947,164.333 49.883 C 164.040 49.819,160.290 49.878,156.000 50.014 " stroke="none" fill="#d31314" fill-rule="evenodd"></path><path id="path2" d="M216.000 12.967 C 216.000 13.498,215.775 14.024,215.500 14.135 C 215.225 14.246,226.430 14.321,240.400 14.301 C 254.370 14.282,265.120 14.195,264.288 14.108 C 263.428 14.018,262.802 13.746,262.836 13.475 C 263.023 11.970,263.501 12.000,239.400 12.000 L 216.000 12.000 216.000 12.967 M136.267 14.267 C 136.120 14.413,136.000 21.058,136.000 29.033 C 136.000 37.008,135.865 43.609,135.700 43.701 C 135.535 43.793,135.625 43.814,135.900 43.747 C 136.195 43.675,136.400 44.018,136.400 44.583 C 136.400 45.159,136.121 45.614,135.700 45.724 C 135.315 45.825,135.681 45.928,136.513 45.954 C 138.501 46.015,138.360 47.188,138.488 29.500 L 138.600 14.000 137.567 14.000 C 136.998 14.000,136.413 14.120,136.267 14.267 M265.617 16.369 C 265.107 17.322,265.049 43.142,265.555 43.941 C 265.823 44.364,266.085 44.382,266.749 44.027 C 268.032 43.341,268.096 16.694,266.817 16.009 C 266.188 15.672,265.952 15.743,265.617 16.369 M325.249 43.866 C 326.465 44.190,326.800 47.984,326.800 61.444 C 326.800 74.332,326.802 74.356,327.689 74.977 C 328.451 75.511,330.525 75.601,342.189 75.607 L 355.800 75.614 356.800 76.667 L 357.800 77.720 358.000 107.160 L 358.200 136.600 371.575 136.705 C 382.633 136.793,385.061 136.912,385.595 137.395 C 385.950 137.716,386.951 138.127,387.820 138.308 L 389.400 138.636 389.602 195.618 L 389.804 252.600 389.902 195.074 C 390.001 137.192,389.975 136.000,388.615 136.000 C 388.309 136.000,387.976 135.685,387.876 135.300 C 387.702 134.633,387.691 134.633,387.646 135.300 C 387.589 136.172,361.098 136.405,360.562 135.538 C 360.369 135.227,360.459 135.184,360.838 135.407 C 361.170 135.602,361.113 135.410,360.700 134.937 C 360.047 134.191,360.000 132.202,360.000 105.506 C 360.000 77.072,359.994 76.876,359.200 77.084 C 358.503 77.266,358.399 77.095,358.394 75.747 C 358.390 74.735,358.269 74.387,358.046 74.739 C 357.509 75.586,356.195 75.114,356.232 74.088 L 356.264 73.200 342.532 73.200 L 328.800 73.200 328.796 60.900 C 328.791 46.998,328.672 45.600,327.501 45.600 C 326.869 45.600,326.746 45.395,326.898 44.600 C 327.070 43.700,326.965 43.605,325.845 43.646 C 325.160 43.672,324.892 43.771,325.249 43.866 M75.398 45.535 C 75.039 45.894,75.192 48.052,75.560 47.825 C 75.758 47.702,78.660 47.580,82.009 47.553 C 88.104 47.503,89.605 47.137,89.599 45.700 C 89.597 45.373,75.722 45.212,75.398 45.535 M90.525 45.686 C 91.173 46.098,92.876 46.066,93.567 45.629 C 93.939 45.394,93.432 45.290,92.092 45.327 C 90.969 45.358,90.264 45.520,90.525 45.686 M98.264 45.692 C 98.009 45.853,100.950 45.873,104.800 45.737 C 108.650 45.600,111.890 45.407,112.000 45.308 C 112.339 45.000,98.757 45.381,98.264 45.692 M75.016 76.373 C 74.837 76.664,69.777 76.800,59.176 76.800 L 43.600 76.800 43.600 77.800 C 43.600 78.966,44.867 79.190,45.857 78.200 C 46.368 77.689,48.589 77.600,60.841 77.600 C 73.437 77.600,75.255 77.523,75.462 76.983 C 75.745 76.246,75.393 75.765,75.016 76.373 M80.425 84.200 C 80.425 86.396,80.475 86.534,81.013 85.824 C 81.336 85.396,81.600 84.666,81.600 84.200 C 81.600 83.734,81.336 83.004,81.013 82.576 C 80.475 81.866,80.425 82.004,80.425 84.200 M80.520 136.000 C 80.520 137.210,80.595 137.705,80.687 137.100 C 80.778 136.495,80.778 135.505,80.687 134.900 C 80.595 134.295,80.520 134.790,80.520 136.000 M374.105 134.287 C 374.714 134.379,375.614 134.377,376.105 134.282 C 376.597 134.187,376.100 134.111,375.000 134.114 C 373.900 134.117,373.497 134.195,374.105 134.287 M367.600 134.800 L 366.600 135.120 367.600 135.120 C 368.150 135.120,369.050 134.976,369.600 134.800 L 370.600 134.480 369.600 134.480 C 369.050 134.480,368.150 134.624,367.600 134.800 M14.400 138.392 C 15.256 138.942,14.394 140.198,13.154 140.208 L 12.200 140.215 12.121 201.929 C 12.043 262.528,12.071 264.800,12.892 264.800 C 13.115 264.800,13.054 264.485,12.756 264.100 C 12.315 263.530,12.380 263.542,13.107 264.162 C 13.623 264.603,14.000 265.381,14.000 266.006 C 14.000 267.483,15.157 267.592,30.871 267.597 C 42.600 267.600,43.555 267.652,43.724 268.300 C 43.862 268.827,43.919 268.777,43.954 268.100 L 44.000 267.200 30.390 267.200 L 16.780 267.200 16.413 266.234 C 16.211 265.703,15.676 265.151,15.223 265.007 L 14.400 264.746 14.400 202.853 C 14.400 155.247,14.511 140.849,14.880 140.480 C 15.236 140.124,19.126 140.000,29.908 140.000 L 44.456 140.000 44.328 139.100 L 44.200 138.200 29.000 138.103 C 19.140 138.041,14.011 138.142,14.400 138.392 M50.154 145.377 C 49.855 146.155,50.106 147.302,50.611 147.470 C 51.062 147.621,52.049 145.382,51.690 145.023 C 51.264 144.598,50.374 144.803,50.154 145.377 M50.600 171.200 C 50.448 171.446,51.094 171.598,52.276 171.594 C 53.666 171.589,54.033 171.480,53.600 171.200 C 52.813 170.691,50.914 170.691,50.600 171.200 M186.714 171.985 C 174.862 172.168,172.736 172.291,172.204 172.824 C 171.193 173.836,171.291 233.874,172.305 234.653 C 173.440 235.525,199.226 235.217,201.400 234.306 C 202.793 233.722,204.885 233.631,217.600 233.605 C 229.085 233.581,232.349 233.461,232.900 233.043 C 233.556 232.545,233.600 230.621,233.600 202.664 L 233.600 172.815 232.700 172.613 C 232.205 172.501,225.050 172.358,216.800 172.294 C 208.550 172.230,201.530 172.086,201.200 171.974 C 200.870 171.861,194.351 171.866,186.714 171.985 M202.549 173.544 C 203.168 174.227,203.219 176.643,203.185 203.343 L 203.148 232.398 202.074 232.621 C 201.483 232.744,200.280 233.163,199.400 233.552 C 197.205 234.523,173.828 234.209,173.191 233.200 C 172.962 232.837,172.810 221.197,172.806 203.729 C 172.799 171.662,172.602 173.869,175.513 173.383 C 176.331 173.246,177.180 173.073,177.400 172.999 C 179.247 172.372,201.934 172.864,202.549 173.544 M269.855 233.170 C 264.434 233.559,264.800 232.369,264.800 249.617 C 264.800 262.917,264.750 263.961,264.100 264.156 C 263.715 264.271,251.700 264.399,237.400 264.439 C 223.100 264.480,196.082 264.583,177.360 264.669 C 155.086 264.772,142.953 264.686,142.260 264.423 L 141.200 264.020 141.200 249.654 C 141.200 232.042,141.798 233.544,135.000 234.070 C 132.360 234.274,115.530 234.537,97.600 234.654 C 58.263 234.911,49.204 235.098,48.516 235.670 C 47.776 236.284,47.761 265.709,48.500 266.305 C 49.481 267.095,51.564 267.168,64.200 266.851 C 71.240 266.675,77.405 266.677,77.900 266.855 L 78.800 267.180 78.800 295.986 L 78.800 324.792 79.685 326.819 L 80.570 328.846 88.185 328.682 C 92.373 328.591,96.520 328.356,97.400 328.159 C 98.296 327.958,108.152 327.888,119.800 328.000 L 140.600 328.200 140.685 340.800 C 140.732 347.730,140.878 354.493,141.010 355.829 L 141.248 358.258 147.724 358.764 C 154.618 359.303,167.728 359.186,190.800 358.380 C 197.730 358.139,212.130 357.855,222.800 357.750 C 233.470 357.646,247.209 357.454,253.331 357.324 L 264.462 357.089 264.831 356.118 C 265.034 355.585,265.200 348.984,265.200 341.450 C 265.200 330.253,265.304 327.611,265.768 326.976 C 266.311 326.234,267.022 326.195,282.068 326.094 C 290.720 326.035,304.014 325.872,311.610 325.732 C 321.015 325.557,325.672 325.610,326.210 325.898 C 327.144 326.397,327.061 354.043,326.117 356.700 L 325.656 358.000 327.704 358.000 C 329.384 358.000,329.649 357.910,329.176 357.500 C 328.690 357.078,328.618 354.651,328.714 341.900 L 328.828 326.800 342.714 326.708 L 356.600 326.615 342.000 326.408 L 327.400 326.200 327.298 295.964 L 327.195 265.729 328.040 264.964 C 328.827 264.252,329.628 264.199,339.742 264.184 C 347.465 264.173,350.852 264.029,351.474 263.684 C 352.821 262.937,357.456 263.047,357.757 263.833 C 357.891 264.181,358.000 278.503,358.000 295.661 L 358.000 326.856 358.900 326.728 L 359.800 326.600 359.902 296.100 L 360.005 265.600 374.760 265.600 C 387.845 265.600,389.542 265.528,389.757 264.967 C 389.891 264.619,389.963 261.694,389.918 258.467 L 389.837 252.600 389.618 257.800 L 389.400 263.000 374.317 263.105 C 359.345 263.209,359.230 263.203,358.783 262.369 C 358.476 261.795,358.324 257.141,358.305 247.745 C 358.271 231.170,359.675 233.083,347.651 233.232 C 342.673 233.294,336.350 233.313,333.600 233.273 C 316.557 233.028,272.819 232.958,269.855 233.170 M325.776 233.859 L 327.663 234.117 327.532 248.826 C 327.459 256.915,327.250 263.684,327.067 263.867 C 326.884 264.050,320.142 264.254,312.085 264.319 C 302.103 264.400,297.266 264.579,296.901 264.882 C 296.471 265.239,296.379 268.095,296.430 279.502 C 296.481 291.035,296.391 293.773,295.947 294.185 C 294.888 295.165,289.619 295.600,278.803 295.600 C 269.866 295.600,267.753 295.707,266.780 296.210 L 265.600 296.821 265.565 304.310 C 265.546 308.430,265.560 314.637,265.596 318.105 C 265.661 324.174,265.628 324.451,264.732 325.505 L 263.800 326.600 251.800 326.481 C 245.200 326.415,238.180 326.546,236.200 326.771 C 234.220 326.996,226.273 327.197,218.540 327.217 C 208.353 327.243,204.301 327.384,203.829 327.729 C 203.249 328.153,203.180 329.734,203.189 342.284 L 203.200 356.364 201.900 356.589 C 201.185 356.713,195.650 356.856,189.600 356.909 C 181.710 356.977,178.353 357.145,177.726 357.502 C 175.985 358.495,143.949 358.190,142.650 357.168 L 141.593 356.336 141.627 342.085 C 141.659 328.747,141.614 327.800,140.934 327.302 C 140.315 326.849,98.095 326.875,83.117 327.337 C 79.986 327.433,80.212 329.744,80.093 296.435 C 79.990 267.859,79.952 266.480,79.242 265.838 C 78.101 264.806,75.847 264.592,74.224 265.362 C 72.734 266.069,50.422 266.155,49.295 265.459 C 48.436 264.928,48.596 237.868,49.462 237.149 C 50.292 236.460,51.861 236.421,96.400 235.978 C 115.650 235.786,133.272 235.520,135.559 235.387 C 138.770 235.200,139.801 235.265,140.080 235.672 C 140.284 235.969,140.394 242.229,140.333 250.000 C 140.224 263.842,140.327 265.333,141.421 265.753 C 142.180 266.044,209.090 266.115,209.559 265.825 C 209.754 265.705,222.218 265.592,237.257 265.575 C 260.455 265.549,264.736 265.456,265.500 264.963 L 266.400 264.382 266.400 250.005 C 266.400 233.720,266.032 235.309,270.000 234.463 C 271.210 234.206,272.830 233.935,273.600 233.861 C 276.293 233.605,323.906 233.602,325.776 233.859 M43.676 326.700 C 43.774 327.891,43.980 328.226,44.675 328.325 C 45.221 328.402,45.598 328.779,45.675 329.325 L 45.800 330.200 60.452 330.305 L 75.104 330.410 75.333 329.535 C 75.726 328.030,75.461 328.000,61.676 327.995 C 46.666 327.988,46.658 327.988,45.984 326.362 C 45.197 324.462,43.511 324.709,43.676 326.700 M75.200 356.924 C 75.200 357.733,75.398 358.000,76.000 358.000 C 77.079 358.000,77.016 358.969,75.900 359.533 C 75.405 359.783,75.270 359.969,75.600 359.946 C 78.605 359.740,79.948 360.025,80.072 360.896 C 80.145 361.408,80.538 361.856,80.987 361.942 C 81.700 362.078,81.719 362.023,81.187 361.369 C 80.703 360.773,80.700 360.707,81.168 360.989 C 81.594 361.246,81.672 361.165,81.481 360.666 C 81.265 360.105,81.513 360.000,83.056 360.000 C 84.818 360.000,84.877 360.038,84.631 361.019 C 84.383 362.006,84.431 362.035,86.166 361.945 C 87.316 361.886,87.861 361.700,87.689 361.426 C 86.829 360.051,87.134 360.000,96.212 360.000 C 104.340 360.000,106.442 360.233,105.207 360.996 C 104.236 361.596,104.959 362.000,107.000 362.000 C 108.892 362.000,109.200 361.894,109.200 361.243 C 109.200 360.048,109.742 360.000,123.227 360.000 L 135.989 360.000 136.095 373.700 L 136.200 387.400 137.100 387.528 C 137.966 387.651,138.418 388.800,137.600 388.800 C 137.380 388.800,137.200 388.980,137.200 389.200 C 137.200 389.420,137.335 389.579,137.500 389.553 C 139.291 389.270,140.442 389.656,140.325 390.500 L 140.200 391.400 165.100 391.520 C 183.150 391.608,190.000 391.519,190.000 391.197 C 190.000 390.953,189.820 390.864,189.600 391.000 C 189.380 391.136,189.200 390.877,189.200 390.424 L 189.200 389.600 220.720 389.600 C 244.702 389.600,252.355 389.715,252.720 390.080 C 253.093 390.453,253.200 390.453,253.200 390.080 C 253.200 389.749,254.139 389.600,256.224 389.600 C 258.526 389.600,259.180 389.719,258.965 390.100 C 258.739 390.500,258.790 390.500,259.221 390.100 C 259.571 389.775,261.049 389.600,263.437 389.600 C 266.421 389.600,267.160 389.481,267.357 388.967 C 268.113 386.997,267.599 358.054,266.804 357.801 C 265.326 357.332,265.272 357.828,265.220 372.279 C 265.164 388.168,265.269 387.600,262.371 387.600 C 261.143 387.600,260.323 387.802,260.120 388.156 C 259.780 388.745,142.181 389.551,140.677 388.974 C 140.304 388.831,140.000 388.507,140.000 388.253 C 140.000 388.000,139.640 387.568,139.200 387.293 C 138.426 386.809,138.400 386.360,138.400 373.342 L 138.400 359.892 137.379 358.946 L 136.359 358.000 124.323 358.000 C 114.124 358.000,112.220 358.091,111.844 358.596 C 111.198 359.463,80.079 359.585,79.425 358.723 C 79.191 358.415,78.370 357.918,77.600 357.620 C 76.830 357.321,75.975 356.800,75.700 356.462 C 75.272 355.935,75.200 356.001,75.200 356.924 M96.400 361.200 L 89.400 361.429 96.276 361.514 C 100.524 361.567,103.247 361.447,103.400 361.200 C 103.536 360.980,103.592 360.839,103.524 360.886 C 103.456 360.933,100.250 361.074,96.400 361.200 M252.000 391.287 C 252.000 391.459,252.450 391.600,253.000 391.600 C 253.550 391.600,254.000 391.422,254.000 391.204 C 254.000 390.987,253.550 390.846,253.000 390.892 C 252.450 390.937,252.000 391.115,252.000 391.287 " stroke="none" fill="#a29999" fill-rule="evenodd"></path><path id="path3" d="M138.916 16.236 C 138.602 17.791,138.440 23.237,138.441 32.158 C 138.442 39.615,138.299 45.825,138.122 45.958 C 137.945 46.091,128.260 46.110,116.600 46.000 C 90.945 45.758,90.384 45.775,90.111 46.820 C 89.919 47.554,89.512 47.600,83.182 47.600 C 77.921 47.600,76.334 47.723,75.892 48.165 C 75.153 48.904,74.892 74.677,75.610 76.018 C 76.640 77.942,76.214 78.000,60.963 78.000 L 46.824 78.000 45.935 79.202 C 45.321 80.034,44.823 80.334,44.323 80.176 C 43.833 80.020,43.600 80.151,43.600 80.581 C 43.600 81.058,43.848 81.153,44.600 80.964 L 45.600 80.713 45.600 110.310 L 45.600 139.907 44.700 140.148 C 44.205 140.281,37.387 140.392,29.549 140.395 C 18.012 140.399,15.212 140.504,14.846 140.945 C 14.513 141.346,14.396 157.700,14.404 202.552 L 14.415 263.615 15.307 264.500 C 15.798 264.987,16.385 265.749,16.612 266.193 C 17.011 266.977,17.436 267.003,31.312 267.105 L 45.600 267.210 45.600 296.025 C 45.600 327.441,45.551 326.745,47.845 327.617 C 48.413 327.833,54.641 328.000,62.126 328.000 L 75.400 327.999 75.271 341.426 C 75.123 356.864,74.927 355.967,78.861 357.898 L 81.400 359.144 95.639 359.072 C 107.633 359.011,109.991 358.905,110.600 358.400 C 111.794 357.408,136.885 357.514,137.885 358.515 C 138.543 359.174,138.600 360.301,138.600 372.744 L 138.600 386.257 139.923 387.582 L 141.245 388.907 163.323 388.859 C 175.465 388.833,201.851 388.801,221.958 388.789 C 257.639 388.768,258.539 388.749,259.512 387.984 C 260.219 387.427,261.128 387.200,262.646 387.200 C 265.408 387.200,265.246 388.227,265.112 371.600 L 265.000 357.800 260.400 357.530 C 257.870 357.381,253.100 357.446,249.800 357.675 C 246.500 357.903,234.800 358.060,223.800 358.022 C 211.651 357.981,203.293 358.108,202.509 358.346 C 200.873 358.844,149.911 359.350,145.015 358.917 L 141.431 358.600 141.046 357.200 C 140.835 356.430,140.558 349.590,140.431 342.000 L 140.200 328.200 118.687 328.097 C 99.785 328.006,97.026 328.069,95.959 328.621 C 94.758 329.242,86.142 329.425,81.789 328.922 C 78.643 328.558,78.800 330.241,78.800 296.991 C 78.800 273.948,78.693 267.581,78.300 267.338 C 78.025 267.168,71.297 267.084,63.348 267.151 L 48.896 267.273 48.248 266.347 C 47.579 265.393,47.220 237.856,47.855 236.202 C 48.414 234.745,49.606 234.692,90.400 234.339 C 112.510 234.148,132.810 233.892,135.511 233.772 L 140.421 233.553 141.011 234.963 C 141.491 236.114,141.600 238.923,141.600 250.180 L 141.600 263.985 142.656 264.250 C 143.846 264.549,264.089 264.035,264.400 263.730 C 264.510 263.622,264.645 257.235,264.700 249.537 C 264.805 234.788,264.877 233.854,265.936 233.329 C 267.247 232.680,357.317 232.800,358.048 233.452 C 358.621 233.963,358.698 235.626,358.710 247.842 C 358.723 260.420,358.787 261.723,359.424 262.427 C 360.215 263.300,386.380 263.644,388.574 262.810 L 389.600 262.420 389.595 201.510 C 389.589 134.743,389.718 138.933,387.656 138.547 C 386.855 138.397,385.735 137.931,385.166 137.511 C 384.217 136.810,383.741 136.775,379.366 137.090 C 376.745 137.278,372.620 137.331,370.200 137.208 C 367.780 137.084,365.160 137.115,364.379 137.276 C 363.597 137.437,361.797 137.441,360.379 137.284 L 357.800 137.000 357.673 107.443 L 357.547 77.885 356.391 76.730 L 355.235 75.574 341.333 75.616 C 328.487 75.655,327.392 75.604,326.916 74.952 C 326.519 74.410,326.399 71.142,326.394 60.824 C 326.389 49.850,326.283 47.217,325.810 46.400 C 325.492 45.850,325.102 45.130,324.945 44.800 C 324.787 44.470,324.465 44.068,324.229 43.906 C 323.290 43.263,267.705 43.551,267.455 44.200 C 267.145 45.010,265.748 44.963,265.429 44.132 C 265.288 43.764,265.193 37.059,265.217 29.232 L 265.262 15.000 263.331 14.744 C 262.269 14.604,233.949 14.350,200.397 14.180 L 139.393 13.872 138.916 16.236 M143.926 15.100 C 143.846 15.522,143.358 15.850,142.697 15.927 C 141.487 16.066,141.349 15.852,142.100 14.998 C 142.830 14.169,144.089 14.239,143.926 15.100 M170.600 48.072 C 182.920 48.142,208.520 48.147,227.488 48.081 C 250.077 48.004,262.497 48.104,263.488 48.371 C 266.079 49.071,266.080 49.074,266.035 63.270 C 265.991 77.262,266.116 78.113,268.286 78.657 C 268.875 78.805,276.927 78.715,286.179 78.458 C 309.651 77.804,324.826 77.838,325.797 78.548 C 327.116 79.513,327.291 83.094,327.375 110.889 C 327.452 136.442,327.497 138.024,328.183 138.781 C 329.291 140.005,330.801 140.134,344.376 140.168 L 356.953 140.200 357.730 141.529 C 358.578 142.978,358.947 154.247,358.480 164.384 C 358.161 171.307,359.331 170.797,343.718 170.813 C 334.702 170.822,329.719 171.001,326.600 171.426 C 323.217 171.887,315.769 172.082,294.383 172.269 L 266.566 172.512 265.936 171.552 C 264.441 169.270,263.997 156.979,265.005 145.781 C 265.421 141.171,265.660 141.278,254.800 141.190 C 239.894 141.069,173.053 141.955,166.400 142.362 C 162.990 142.570,156.558 142.754,152.106 142.770 L 144.013 142.800 142.803 143.900 L 141.593 145.000 141.418 158.103 C 141.266 169.455,141.152 171.357,140.569 172.344 L 139.896 173.484 132.848 173.488 C 128.972 173.490,108.504 173.625,87.365 173.787 L 48.931 174.081 48.439 172.894 C 47.546 170.737,47.613 143.817,48.514 142.915 C 49.167 142.260,50.423 142.189,63.362 142.073 L 77.496 141.946 78.048 140.873 C 78.499 139.996,78.615 134.695,78.683 111.800 C 78.772 81.718,78.844 80.392,80.408 79.956 C 80.954 79.804,94.392 79.662,110.271 79.640 C 141.913 79.596,140.375 79.717,140.420 77.271 C 140.430 76.682,140.475 70.350,140.520 63.200 C 140.576 54.081,140.741 49.961,141.071 49.400 C 141.529 48.622,146.042 47.537,147.600 47.831 C 147.930 47.893,158.280 48.002,170.600 48.072 M381.300 134.287 C 381.905 134.378,382.895 134.378,383.500 134.287 C 384.105 134.195,383.610 134.120,382.400 134.120 C 381.190 134.120,380.695 134.195,381.300 134.287 M224.024 172.000 C 230.293 172.000,232.832 172.136,233.326 172.500 C 234.482 173.352,234.486 232.091,233.331 233.247 C 232.553 234.025,232.075 234.049,218.963 233.970 C 202.645 233.872,203.122 233.855,201.336 234.601 C 200.157 235.094,197.461 235.200,186.160 235.200 L 172.418 235.200 171.796 234.250 C 170.847 232.802,170.851 173.778,171.800 172.827 C 172.819 171.808,176.690 171.652,196.600 171.830 C 206.940 171.923,219.281 171.999,224.024 172.000 M353.200 263.872 C 351.296 264.306,347.699 264.483,339.762 264.533 C 331.240 264.586,328.782 264.717,328.262 265.149 C 327.148 266.073,327.257 325.388,328.374 325.986 C 329.896 326.801,357.598 326.530,357.612 325.700 C 357.843 312.270,357.476 264.132,357.139 263.727 C 356.622 263.104,356.553 263.107,353.200 263.872 M301.200 326.465 C 299.110 326.658,290.649 326.703,282.398 326.564 C 268.155 326.326,267.351 326.351,266.515 327.057 C 265.640 327.794,265.633 327.909,265.517 342.496 L 265.400 357.192 266.560 357.596 C 267.292 357.851,276.877 358.000,292.591 358.000 L 317.464 358.000 317.432 357.100 C 317.394 356.029,318.488 355.749,320.185 356.394 C 321.270 356.807,321.286 356.850,320.559 357.400 C 319.875 357.918,320.066 357.976,322.500 357.987 C 324.968 357.999,325.200 357.929,325.200 357.171 C 325.200 356.716,325.470 356.073,325.800 355.743 C 326.730 354.813,326.699 326.600,325.767 326.243 C 324.832 325.884,305.610 326.058,301.200 326.465 " stroke="none" fill="#050404" fill-rule="evenodd"></path><path id="path4" d="M138.849 14.600 C 138.816 15.040,138.696 15.850,138.583 16.400 L 138.377 17.400 138.806 16.419 C 139.042 15.879,139.161 15.069,139.072 14.619 C 138.913 13.821,138.907 13.821,138.849 14.600 M142.100 14.998 C 141.349 15.852,141.487 16.066,142.697 15.927 C 143.358 15.850,143.846 15.522,143.926 15.100 C 144.089 14.239,142.830 14.169,142.100 14.998 M262.200 14.603 C 263.134 14.928,265.600 15.013,265.600 14.720 C 265.600 14.544,264.745 14.414,263.700 14.432 C 262.655 14.449,261.980 14.526,262.200 14.603 M138.501 21.400 C 138.505 22.280,138.587 22.593,138.683 22.095 C 138.779 21.598,138.775 20.878,138.675 20.495 C 138.575 20.113,138.496 20.520,138.501 21.400 M266.399 44.219 C 265.436 44.752,265.431 44.772,266.276 44.786 C 266.758 44.794,267.271 44.608,267.416 44.373 C 267.843 43.683,267.469 43.627,266.399 44.219 M324.229 43.874 C 324.465 44.053,324.787 44.470,324.945 44.800 C 326.048 47.110,326.464 47.443,326.193 45.800 C 326.048 44.920,325.900 44.177,325.864 44.150 C 325.829 44.122,325.350 43.975,324.800 43.823 C 324.250 43.672,323.993 43.694,324.229 43.874 M138.446 44.680 C 138.421 45.164,138.085 45.744,137.700 45.968 C 137.315 46.192,137.203 46.381,137.451 46.388 C 138.163 46.407,138.884 45.309,138.679 44.519 C 138.530 43.943,138.484 43.974,138.446 44.680 M89.600 45.613 C 89.600 45.826,89.240 46.360,88.800 46.800 L 88.000 47.600 88.900 47.597 C 90.000 47.593,91.049 45.781,90.151 45.437 C 89.848 45.320,89.600 45.399,89.600 45.613 M96.100 45.876 C 96.485 45.976,97.115 45.976,97.500 45.876 C 97.885 45.775,97.570 45.693,96.800 45.693 C 96.030 45.693,95.715 45.775,96.100 45.876 M110.500 45.900 C 115.065 45.964,122.535 45.964,127.100 45.900 C 131.665 45.835,127.930 45.783,118.800 45.783 C 109.670 45.783,105.935 45.835,110.500 45.900 M144.271 48.159 C 140.428 48.780,140.613 48.037,140.520 63.200 C 140.475 70.350,140.430 76.682,140.420 77.271 C 140.375 79.717,141.913 79.596,110.271 79.640 C 94.392 79.662,80.954 79.804,80.408 79.956 C 78.844 80.392,78.772 81.718,78.683 111.800 C 78.615 134.695,78.499 139.996,78.048 140.873 L 77.496 141.946 63.362 142.073 C 50.423 142.189,49.167 142.260,48.514 142.915 C 47.613 143.817,47.546 170.737,48.439 172.894 L 48.931 174.081 87.365 173.787 C 108.504 173.625,128.972 173.490,132.848 173.488 L 139.896 173.484 140.569 172.344 C 141.152 171.357,141.266 169.455,141.418 158.103 L 141.593 145.000 142.803 143.900 L 144.013 142.800 152.106 142.770 C 156.558 142.754,162.990 142.570,166.400 142.362 C 173.053 141.955,239.894 141.069,254.800 141.190 C 265.660 141.278,265.421 141.171,265.005 145.781 C 263.997 156.979,264.441 169.270,265.936 171.552 L 266.566 172.512 294.383 172.269 C 315.769 172.082,323.217 171.887,326.600 171.426 C 329.719 171.001,334.702 170.822,343.718 170.813 C 359.331 170.797,358.161 171.307,358.480 164.384 C 358.947 154.247,358.578 142.978,357.730 141.529 L 356.953 140.200 344.376 140.168 C 330.801 140.134,329.291 140.005,328.183 138.781 C 327.497 138.024,327.452 136.442,327.375 110.889 C 327.291 83.094,327.116 79.513,325.797 78.548 C 324.826 77.838,309.651 77.804,286.179 78.458 C 276.927 78.715,268.875 78.805,268.286 78.657 C 266.116 78.113,265.991 77.262,266.035 63.270 C 266.080 49.074,266.079 49.071,263.488 48.371 C 262.497 48.104,250.077 48.004,227.488 48.081 C 193.787 48.197,148.796 48.056,147.600 47.831 C 147.270 47.769,145.772 47.916,144.271 48.159 M326.494 60.824 C 326.393 75.185,326.401 75.248,328.400 75.791 C 329.254 76.022,329.211 75.942,328.105 75.240 L 326.811 74.418 326.700 60.909 L 326.589 47.400 326.494 60.824 M168.206 50.000 C 172.401 50.000,172.149 49.280,172.047 61.000 C 171.954 71.692,172.472 76.851,173.763 78.088 C 174.592 78.883,174.878 78.887,205.000 78.545 C 221.720 78.355,238.370 78.193,242.000 78.185 C 245.630 78.177,250.340 78.016,252.467 77.828 C 255.645 77.547,256.692 77.603,258.342 78.143 C 259.447 78.504,260.730 78.800,261.195 78.800 C 262.872 78.800,264.233 79.882,264.809 81.672 C 265.115 82.623,265.714 84.206,266.142 85.191 C 266.845 86.815,266.896 87.621,266.683 93.811 C 266.537 98.084,266.608 101.305,266.873 102.420 C 267.107 103.399,267.269 104.873,267.233 105.696 C 267.091 108.966,266.323 108.799,281.514 108.806 C 288.931 108.809,295.198 108.944,295.440 109.106 C 296.681 109.935,296.800 111.288,296.800 124.574 C 296.800 141.623,294.934 139.600,310.660 139.600 L 322.920 139.600 325.160 140.685 C 328.378 142.244,329.193 143.716,328.359 146.463 C 327.879 148.045,327.554 162.820,327.986 163.400 C 328.886 164.606,328.632 165.511,326.815 167.583 L 324.944 169.716 296.507 169.758 C 280.867 169.781,267.919 169.649,267.735 169.465 C 267.551 169.281,267.395 162.938,267.390 155.369 C 267.377 138.637,268.207 140.352,259.900 139.883 C 251.342 139.399,188.703 139.521,171.600 140.055 C 163.790 140.299,154.160 140.387,150.200 140.250 C 140.849 139.926,138.838 141.034,139.391 146.200 C 140.199 153.734,139.859 167.961,138.823 170.000 C 138.510 170.616,136.525 170.915,129.600 171.389 C 127.730 171.518,115.310 171.710,102.000 171.816 C 71.116 172.064,70.752 172.063,59.774 171.763 L 50.548 171.511 50.028 169.748 C 49.601 168.303,49.601 167.410,50.025 164.798 C 50.447 162.197,50.448 160.816,50.029 157.295 C 49.559 153.343,49.662 146.071,50.199 145.201 C 50.317 145.010,50.906 144.859,51.507 144.866 C 52.108 144.873,53.388 144.590,54.352 144.239 C 55.770 143.721,56.569 143.675,58.552 143.997 C 64.980 145.040,78.678 144.282,80.159 142.801 C 80.471 142.489,80.609 134.585,80.631 115.880 C 80.649 101.316,80.805 88.611,80.978 87.647 C 81.205 86.390,81.168 85.973,80.847 86.171 C 80.537 86.362,80.400 85.739,80.400 84.144 C 80.400 81.649,81.050 81.571,81.548 84.006 L 81.810 85.286 83.554 83.643 L 85.299 82.000 106.349 81.916 C 117.927 81.870,128.030 81.844,128.800 81.858 C 129.570 81.872,132.321 81.936,134.912 82.000 C 139.891 82.123,141.600 81.517,141.600 79.630 C 141.600 79.284,141.945 78.094,142.365 76.988 C 142.816 75.801,142.999 74.734,142.811 74.388 C 142.312 73.471,141.503 68.081,141.793 67.612 C 141.935 67.381,142.214 65.063,142.411 62.461 C 142.609 59.859,142.978 57.206,143.231 56.565 C 143.484 55.924,143.669 54.635,143.642 53.700 C 143.616 52.765,143.643 52.000,143.702 52.000 C 143.762 52.000,144.799 51.605,146.006 51.123 C 148.014 50.320,162.008 49.374,164.333 49.883 C 164.626 49.947,166.369 50.000,168.206 50.000 M75.301 53.800 C 75.305 54.680,75.387 54.993,75.483 54.495 C 75.579 53.998,75.575 53.278,75.475 52.895 C 75.375 52.513,75.296 52.920,75.301 53.800 M355.846 76.111 C 355.983 76.502,356.478 77.019,356.947 77.260 C 357.677 77.635,357.716 77.619,357.218 77.149 C 356.898 76.847,356.403 76.330,356.117 76.000 C 355.665 75.478,355.630 75.492,355.846 76.111 M75.462 76.983 C 75.255 77.523,73.437 77.600,60.841 77.600 C 48.589 77.600,46.368 77.689,45.857 78.200 C 45.527 78.530,44.884 78.800,44.429 78.800 C 43.434 78.800,43.322 79.808,44.277 80.174 C 44.743 80.353,45.249 80.056,45.906 79.217 L 46.858 78.000 60.980 78.000 C 75.027 78.000,77.132 77.799,75.906 76.573 C 75.792 76.459,75.592 76.643,75.462 76.983 M357.788 101.600 C 357.788 114.690,357.838 120.045,357.900 113.500 C 357.961 106.955,357.961 96.245,357.900 89.700 C 357.838 83.155,357.788 88.510,357.788 101.600 M44.100 81.065 C 43.458 81.324,43.359 137.804,44.000 138.200 C 44.220 138.336,44.400 138.797,44.400 139.224 C 44.400 139.978,43.986 140.000,29.849 140.000 C 16.459 140.000,15.256 140.056,14.768 140.700 C 14.318 141.296,14.322 141.325,14.799 140.900 C 15.225 140.520,18.776 140.399,29.580 140.395 C 37.401 140.392,44.205 140.281,44.700 140.148 L 45.600 139.907 45.600 110.353 C 45.600 79.798,45.633 80.446,44.100 81.065 M357.759 134.200 L 357.800 137.000 360.200 137.273 C 361.520 137.423,363.320 137.423,364.200 137.273 C 365.493 137.052,365.072 136.962,362.000 136.800 L 358.200 136.600 357.959 134.000 L 357.718 131.400 357.759 134.200 M370.600 137.172 C 373.020 137.301,376.440 137.298,378.200 137.165 C 380.289 137.008,378.761 136.926,373.800 136.930 C 367.507 136.935,366.957 136.977,370.600 137.172 M385.350 137.632 C 385.932 138.090,386.631 138.374,386.904 138.264 C 387.215 138.138,387.158 138.051,386.749 138.032 C 386.391 138.014,385.874 137.730,385.600 137.400 C 385.326 137.070,384.920 136.800,384.697 136.800 C 384.474 136.800,384.768 137.174,385.350 137.632 M388.475 138.648 C 388.847 138.758,389.242 139.153,389.352 139.525 C 389.499 140.014,389.532 139.981,389.472 139.405 C 389.425 138.938,389.062 138.575,388.595 138.528 C 388.019 138.468,387.986 138.501,388.475 138.648 M183.324 171.899 C 186.583 171.967,191.803 171.966,194.924 171.899 C 198.046 171.831,195.380 171.776,189.000 171.777 C 182.620 171.777,180.066 171.832,183.324 171.899 M218.400 172.403 C 226.650 172.525,233.445 172.664,233.500 172.712 C 234.101 173.240,233.511 232.580,232.900 233.043 C 232.351 233.460,229.280 233.577,218.633 233.587 C 211.172 233.594,205.152 233.686,205.257 233.791 C 205.991 234.524,232.568 234.010,233.331 233.247 C 234.486 232.091,234.482 173.352,233.326 172.500 C 232.806 172.117,229.212 172.021,218.024 172.090 L 203.400 172.181 218.400 172.403 M171.636 172.957 C 171.161 173.529,170.921 233.054,171.392 233.525 C 171.511 233.645,171.603 220.189,171.595 203.624 C 171.584 181.546,171.703 173.358,172.039 172.953 C 172.292 172.649,172.408 172.400,172.298 172.400 C 172.188 172.400,171.890 172.650,171.636 172.957 M270.100 233.087 C 270.705 233.178,271.695 233.178,272.300 233.087 C 272.905 232.995,272.410 232.920,271.200 232.920 C 269.990 232.920,269.495 232.995,270.100 233.087 M342.478 233.098 C 344.831 233.169,348.791 233.169,351.278 233.099 C 353.765 233.029,351.840 232.971,347.000 232.970 C 342.160 232.970,340.125 233.028,342.478 233.098 M357.238 233.396 L 358.277 233.961 358.305 247.744 C 358.333 261.352,358.497 263.200,359.676 263.200 C 359.922 263.200,359.810 262.853,359.426 262.428 C 358.790 261.726,358.727 260.421,358.718 247.928 C 358.709 233.413,358.629 232.771,356.838 232.816 C 356.430 232.826,356.575 233.036,357.238 233.396 M265.612 233.584 C 264.659 234.187,265.309 234.314,266.400 233.739 C 266.951 233.448,267.131 233.212,266.800 233.212 C 266.470 233.212,265.935 233.380,265.612 233.584 M330.500 233.494 C 331.545 233.576,333.255 233.576,334.300 233.494 C 335.345 233.412,334.490 233.344,332.400 233.344 C 330.310 233.344,329.455 233.412,330.500 233.494 M130.400 233.980 C 129.850 234.146,131.380 234.203,133.800 234.108 C 136.220 234.012,138.380 233.873,138.600 233.799 C 139.437 233.515,131.351 233.694,130.400 233.980 M200.400 234.600 C 199.094 235.347,199.551 235.355,201.254 234.616 C 201.994 234.294,202.330 234.031,202.000 234.030 C 201.670 234.029,200.950 234.286,200.400 234.600 M63.300 234.676 C 63.685 234.776,64.315 234.776,64.700 234.676 C 65.085 234.575,64.770 234.493,64.000 234.493 C 63.230 234.493,62.915 234.575,63.300 234.676 M67.705 234.687 C 68.314 234.779,69.214 234.777,69.705 234.682 C 70.197 234.587,69.700 234.511,68.600 234.514 C 67.500 234.517,67.097 234.595,67.705 234.687 M85.728 234.700 C 91.849 234.762,101.749 234.762,107.728 234.700 C 113.708 234.637,108.700 234.587,96.600 234.587 C 84.500 234.587,79.608 234.638,85.728 234.700 M53.682 235.096 C 55.158 235.173,57.678 235.173,59.282 235.097 C 60.887 235.021,59.680 234.958,56.600 234.958 C 53.520 234.957,52.207 235.019,53.682 235.096 M141.392 249.967 C 141.399 262.215,141.481 264.156,142.000 264.297 C 142.439 264.417,142.467 264.367,142.105 264.110 C 141.732 263.846,141.583 260.321,141.497 249.780 L 141.384 235.800 141.392 249.967 M47.781 251.000 C 47.781 259.140,47.834 262.413,47.900 258.274 C 47.965 254.134,47.965 247.474,47.899 243.474 C 47.834 239.473,47.781 242.860,47.781 251.000 M264.520 262.000 C 264.520 263.210,264.595 263.705,264.687 263.100 C 264.778 262.495,264.778 261.505,264.687 260.900 C 264.595 260.295,264.520 260.790,264.520 262.000 M351.400 263.700 C 350.836 264.035,347.398 264.179,339.742 264.188 C 329.625 264.199,328.827 264.252,328.040 264.964 L 327.195 265.729 327.298 295.959 C 327.399 325.843,327.409 326.190,328.200 326.309 C 328.931 326.419,328.940 326.392,328.300 325.995 C 327.249 325.342,327.211 266.020,328.262 265.149 C 328.782 264.717,331.240 264.586,339.762 264.533 C 347.699 264.483,351.296 264.306,353.200 263.872 L 355.800 263.278 354.000 263.251 C 353.010 263.236,351.840 263.438,351.400 263.700 M357.120 263.680 C 357.483 264.043,357.624 271.430,357.697 293.980 L 357.795 323.800 357.908 294.400 C 358.021 264.846,357.979 263.200,357.112 263.200 C 356.753 263.200,356.755 263.315,357.120 263.680 M14.400 264.059 C 14.400 264.396,14.895 264.894,15.500 265.166 C 16.419 265.580,16.501 265.574,16.000 265.131 C 15.670 264.839,15.175 264.341,14.900 264.024 C 14.467 263.524,14.400 263.529,14.400 264.059 M215.305 264.287 C 215.914 264.379,216.814 264.377,217.305 264.282 C 217.797 264.187,217.300 264.111,216.200 264.114 C 215.100 264.117,214.697 264.195,215.305 264.287 M228.674 264.299 C 232.894 264.364,239.914 264.364,244.274 264.300 C 248.633 264.235,245.180 264.182,236.600 264.182 C 228.020 264.182,224.453 264.235,228.674 264.299 M259.891 264.289 C 260.601 264.377,261.861 264.379,262.691 264.292 C 263.521 264.205,262.940 264.133,261.400 264.131 C 259.860 264.129,259.181 264.200,259.891 264.289 M159.300 264.700 C 168.485 264.760,183.515 264.760,192.700 264.700 C 201.885 264.640,194.370 264.591,176.000 264.591 C 157.630 264.591,150.115 264.640,159.300 264.700 M48.349 266.500 C 48.651 266.885,49.281 267.179,49.749 267.154 C 50.557 267.110,50.560 267.097,49.800 266.911 C 49.360 266.802,48.730 266.508,48.400 266.257 C 47.878 265.860,47.872 265.891,48.349 266.500 M75.300 266.676 C 75.685 266.776,76.315 266.776,76.700 266.676 C 77.085 266.575,76.770 266.493,76.000 266.493 C 75.230 266.493,74.915 266.575,75.300 266.676 M60.700 267.099 C 63.175 267.169,67.225 267.169,69.700 267.099 C 72.175 267.028,70.150 266.971,65.200 266.971 C 60.250 266.971,58.225 267.028,60.700 267.099 M43.864 268.380 C 43.734 269.029,43.619 282.079,43.608 297.380 L 43.588 325.200 44.546 325.200 C 45.232 325.200,45.644 325.539,46.000 326.400 C 46.273 327.060,46.653 327.600,46.843 327.600 C 47.033 327.600,46.832 327.015,46.396 326.300 C 45.625 325.036,45.603 324.205,45.601 296.100 C 45.600 268.109,45.576 267.200,44.850 267.200 C 44.340 267.200,44.025 267.577,43.864 268.380 M78.814 325.690 C 78.806 326.070,79.159 326.970,79.599 327.690 C 80.612 329.353,80.613 328.697,79.600 326.600 C 79.175 325.720,78.821 325.311,78.814 325.690 M357.600 325.771 C 357.600 326.085,357.285 326.424,356.900 326.524 C 356.373 326.662,356.423 326.719,357.100 326.754 C 357.749 326.787,358.000 326.577,358.000 326.000 C 358.000 325.560,357.910 325.200,357.800 325.200 C 357.690 325.200,357.600 325.457,357.600 325.771 M316.000 326.004 C 321.610 326.131,326.245 326.272,326.300 326.317 C 326.805 326.735,326.321 355.222,325.800 355.743 C 325.470 356.073,325.200 356.746,325.200 357.238 C 325.200 358.407,325.621 357.954,326.263 356.093 C 327.014 353.918,327.065 326.415,326.320 325.942 C 326.034 325.761,321.300 325.648,315.800 325.693 L 305.800 325.773 316.000 326.004 M266.512 326.406 C 265.204 326.935,265.166 327.421,265.294 341.800 L 265.411 355.000 265.506 341.309 L 265.600 327.618 266.597 326.965 C 267.492 326.379,269.114 326.338,282.497 326.565 C 290.694 326.703,299.110 326.661,301.200 326.471 C 303.922 326.223,299.668 326.114,286.200 326.086 C 275.860 326.065,267.000 326.209,266.512 326.406 M140.397 331.918 L 140.594 335.800 140.714 332.236 C 140.779 330.277,140.691 328.530,140.516 328.355 C 140.342 328.180,140.289 329.783,140.397 331.918 M91.000 328.800 L 86.600 329.042 90.800 329.115 C 93.110 329.155,95.270 329.013,95.600 328.800 C 95.930 328.587,96.020 328.445,95.800 328.485 C 95.580 328.525,93.420 328.667,91.000 328.800 M82.705 329.083 C 83.202 329.179,83.922 329.175,84.305 329.075 C 84.687 328.975,84.280 328.896,83.400 328.901 C 82.520 328.905,82.207 328.987,82.705 329.083 M140.573 345.600 C 140.573 350.990,140.630 353.195,140.699 350.500 C 140.768 347.805,140.768 343.395,140.699 340.700 C 140.630 338.005,140.573 340.210,140.573 345.600 M75.200 355.447 C 75.200 356.085,76.130 357.066,77.000 357.345 L 77.800 357.602 77.000 356.992 C 76.560 356.657,75.975 356.082,75.700 355.715 C 75.425 355.348,75.200 355.227,75.200 355.447 M264.729 356.300 C 264.492 357.139,264.235 357.205,260.937 357.271 L 257.400 357.343 261.400 357.582 C 263.600 357.714,265.571 357.682,265.780 357.511 C 266.011 357.322,265.982 357.200,265.708 357.200 C 265.459 357.200,265.194 356.795,265.120 356.300 L 264.984 355.400 264.729 356.300 M317.352 356.581 C 316.816 357.978,319.044 358.547,320.559 357.400 C 321.288 356.848,321.274 356.809,320.233 356.413 C 318.713 355.835,317.614 355.899,317.352 356.581 M248.300 357.493 C 249.235 357.577,250.765 357.577,251.700 357.493 C 252.635 357.409,251.870 357.340,250.000 357.340 C 248.130 357.340,247.365 357.409,248.300 357.493 M118.725 357.899 C 122.093 357.966,127.493 357.966,130.725 357.899 C 133.956 357.832,131.200 357.777,124.600 357.777 C 118.000 357.777,115.356 357.832,118.725 357.899 M223.400 357.985 C 234.400 358.122,244.030 358.117,244.800 357.975 C 245.570 357.832,236.570 357.721,224.800 357.726 L 203.400 357.737 223.400 357.985 M79.200 358.450 C 79.200 358.895,80.205 359.334,80.774 359.138 C 80.994 359.062,80.730 358.792,80.187 358.538 C 79.635 358.279,79.200 358.241,79.200 358.450 M110.000 358.651 L 109.000 359.225 110.369 359.112 C 111.122 359.051,111.812 358.775,111.903 358.500 C 112.114 357.856,111.271 357.923,110.000 358.651 M136.800 358.386 C 136.800 358.598,137.160 358.965,137.600 359.200 C 138.481 359.672,138.675 359.235,137.920 358.480 C 137.342 357.902,136.800 357.856,136.800 358.386 M142.707 358.690 C 143.426 358.779,144.506 358.777,145.107 358.686 C 145.708 358.595,145.120 358.522,143.800 358.524 C 142.480 358.526,141.988 358.601,142.707 358.690 M184.700 358.699 C 187.835 358.767,192.965 358.767,196.100 358.699 C 199.235 358.632,196.670 358.576,190.400 358.576 C 184.130 358.576,181.565 358.632,184.700 358.699 M97.900 359.093 C 98.835 359.177,100.365 359.177,101.300 359.093 C 102.235 359.009,101.470 358.940,99.600 358.940 C 97.730 358.940,96.965 359.009,97.900 359.093 M147.500 359.082 C 147.995 359.178,148.805 359.178,149.300 359.082 C 149.795 358.987,149.390 358.909,148.400 358.909 C 147.410 358.909,147.005 358.987,147.500 359.082 M87.300 359.476 C 87.685 359.576,88.315 359.576,88.700 359.476 C 89.085 359.375,88.770 359.293,88.000 359.293 C 87.230 359.293,86.915 359.375,87.300 359.476 M138.548 364.800 C 138.548 367.110,138.614 368.055,138.695 366.900 C 138.776 365.745,138.776 363.855,138.695 362.700 C 138.614 361.545,138.548 362.490,138.548 364.800 M138.432 386.097 C 138.414 386.480,138.760 387.018,139.200 387.293 C 139.640 387.568,140.000 388.016,140.000 388.289 C 140.000 388.892,141.574 389.332,142.859 389.088 C 143.573 388.952,143.478 388.896,142.469 388.854 C 141.156 388.801,139.222 387.335,138.697 385.996 C 138.511 385.521,138.457 385.542,138.432 386.097 M259.544 387.987 C 258.802 388.605,258.741 388.776,259.257 388.787 C 259.619 388.794,260.014 388.540,260.136 388.222 C 260.280 387.847,261.105 387.591,262.479 387.496 L 264.600 387.348 262.544 387.274 C 261.010 387.219,260.249 387.399,259.544 387.987 M191.105 388.683 C 191.602 388.779,192.322 388.775,192.705 388.675 C 193.087 388.575,192.680 388.496,191.800 388.501 C 190.920 388.505,190.607 388.587,191.105 388.683 M256.100 388.676 C 256.485 388.776,257.115 388.776,257.500 388.676 C 257.885 388.575,257.570 388.493,256.800 388.493 C 256.030 388.493,255.715 388.575,256.100 388.676 M156.900 389.100 C 161.465 389.164,168.935 389.164,173.500 389.100 C 178.065 389.035,174.330 388.983,165.200 388.983 C 156.070 388.983,152.335 389.035,156.900 389.100 M185.700 389.087 C 186.305 389.178,187.295 389.178,187.900 389.087 C 188.505 388.995,188.010 388.920,186.800 388.920 C 185.590 388.920,185.095 388.995,185.700 389.087 " stroke="none" fill="#971115" fill-rule="evenodd"></path></g></svg>